<svg width="113" height="49" viewBox="0 0 113 49" fill="none" xmlns="http://www.w3.org/2000/svg">
<path d="M109.689 48.87C109.185 48.87 108.755 48.7868 108.4 48.6204C108.045 48.4539 107.773 48.2237 107.584 47.9297C107.396 47.6357 107.301 47.3029 107.301 46.9312H108.117C108.117 47.1143 108.164 47.2973 108.258 47.4804C108.358 47.6635 108.522 47.816 108.749 47.938C108.982 48.0601 109.296 48.1211 109.689 48.1211C110.056 48.1211 110.355 48.0684 110.588 47.963C110.821 47.8521 110.993 47.7106 111.104 47.5386C111.215 47.3611 111.27 47.1697 111.27 46.9645C111.27 46.7149 111.162 46.5096 110.946 46.3487C110.73 46.1823 110.413 46.0797 109.997 46.0409L109.323 45.9826C108.785 45.9383 108.355 45.7718 108.034 45.4834C107.712 45.1949 107.551 44.8149 107.551 44.3434C107.551 43.9717 107.64 43.6472 107.817 43.3699C108 43.0925 108.253 42.8762 108.574 42.7208C108.896 42.56 109.271 42.4795 109.698 42.4795C110.119 42.4795 110.491 42.5572 110.813 42.7125C111.135 42.8678 111.384 43.087 111.562 43.3699C111.745 43.6472 111.836 43.9801 111.836 44.3684H111.021C111.021 44.1742 110.974 43.9912 110.879 43.8192C110.791 43.6472 110.649 43.5058 110.455 43.3948C110.261 43.2839 110.008 43.2284 109.698 43.2284C109.398 43.2284 109.149 43.2811 108.949 43.3865C108.755 43.4919 108.608 43.6306 108.508 43.8025C108.414 43.969 108.366 44.1493 108.366 44.3434C108.366 44.5653 108.452 44.7622 108.624 44.9342C108.796 45.1062 109.052 45.206 109.39 45.2337L110.064 45.292C110.48 45.3253 110.838 45.414 111.137 45.5583C111.442 45.6969 111.675 45.8856 111.836 46.1241C112.003 46.3571 112.086 46.6372 112.086 46.9645C112.086 47.3362 111.986 47.6662 111.786 47.9547C111.587 48.2431 111.307 48.4678 110.946 48.6287C110.585 48.7896 110.167 48.87 109.689 48.87Z" fill="#2D2D2D"/>
<path d="M100.063 48.7202V42.6459H101.145L102.942 46.6982H103.075L104.864 42.6459H105.954V48.7202H105.139V43.5363L105.197 43.5529L103.475 47.4637H102.476L100.745 43.5529L100.812 43.5363V48.7202H100.063Z" fill="#2D2D2D"/>
<path d="M93.1245 48.7202L95.3129 42.6459H96.6942L98.9492 48.7202H98.1087L96.0701 43.1785L96.4695 43.3782H95.4877L95.912 43.1785L93.94 48.7202H93.1245ZM94.4309 46.9062L94.7055 46.174H97.3266L97.6012 46.9062H94.4309Z" fill="#2D2D2D"/>
<path d="M88.7842 48.7202V42.6459H89.5996V48.7202H88.7842ZM89.4332 48.7202V47.988H92.3788V48.7202H89.4332ZM89.4332 45.9993V45.267H92.1209V45.9993H89.4332ZM89.4332 43.3782V42.6459H92.2956V43.3782H89.4332Z" fill="#2D2D2D"/>
<path d="M82.9579 48.7202V42.6127H83.7733V48.7202H82.9579ZM86.7106 48.7202L84.697 46.0159H85.6539L87.7008 48.7202H86.7106ZM83.4655 46.5235V45.7996H85.0964C85.3515 45.7996 85.5707 45.7469 85.7537 45.6415C85.9368 45.5361 86.0782 45.3919 86.1781 45.2088C86.2779 45.0202 86.3279 44.8066 86.3279 44.5681C86.3279 44.3296 86.2779 44.1188 86.1781 43.9357C86.0782 43.7471 85.9368 43.6001 85.7537 43.4947C85.5707 43.3837 85.3515 43.3283 85.0964 43.3283H83.4655V42.6127H84.9466C85.3904 42.6127 85.7787 42.6792 86.1115 42.8124C86.4443 42.9455 86.7023 43.1508 86.8854 43.4281C87.0684 43.7055 87.1599 44.0633 87.1599 44.5015V44.6347C87.1599 45.0729 87.0656 45.4307 86.877 45.7081C86.694 45.9854 86.436 46.1907 86.1032 46.3238C85.7759 46.4569 85.3904 46.5235 84.9466 46.5235H83.4655Z" fill="#2D2D2D"/>
<path d="M77.025 48.7535V48.0046H78.5394C78.9055 48.0046 79.23 47.9464 79.513 47.8299C79.8014 47.7078 80.0455 47.5414 80.2452 47.3306C80.4504 47.1198 80.6058 46.873 80.7112 46.5901C80.8166 46.3072 80.8693 46.0021 80.8693 45.6748C80.8693 45.3308 80.8166 45.0202 80.7112 44.7428C80.6058 44.4599 80.4504 44.2158 80.2452 44.0106C80.0455 43.7998 79.8014 43.6389 79.513 43.528C79.23 43.417 78.9055 43.3616 78.5394 43.3616H77.025V42.6127H78.4562C79.0054 42.6127 79.4824 42.6987 79.8874 42.8706C80.2924 43.037 80.628 43.2645 80.8942 43.5529C81.166 43.8358 81.3685 44.1548 81.5017 44.5098C81.6348 44.8593 81.7014 45.2171 81.7014 45.5832V45.7663C81.7014 46.1213 81.6348 46.4763 81.5017 46.8314C81.3685 47.1864 81.166 47.5081 80.8942 47.7966C80.628 48.0851 80.2924 48.318 79.8874 48.4956C79.4824 48.6675 79.0054 48.7535 78.4562 48.7535H77.025ZM76.376 48.7535V42.6127H77.1914V48.7535H76.376Z" fill="#2D2D2D"/>
<path d="M68.6564 48.7202V42.6127H69.4718V48.7202H68.6564ZM72.4091 48.7202L70.3954 46.0159H71.3523L73.3993 48.7202H72.4091ZM69.1639 46.5235V45.7996H70.7948C71.05 45.7996 71.2691 45.7469 71.4522 45.6415C71.6353 45.5361 71.7767 45.3919 71.8766 45.2088C71.9764 45.0202 72.0263 44.8066 72.0263 44.5681C72.0263 44.3296 71.9764 44.1188 71.8766 43.9357C71.7767 43.7471 71.6353 43.6001 71.4522 43.4947C71.2691 43.3837 71.05 43.3283 70.7948 43.3283H69.1639V42.6127H70.6451C71.0889 42.6127 71.4772 42.6792 71.81 42.8124C72.1428 42.9455 72.4008 43.1508 72.5838 43.4281C72.7669 43.7055 72.8584 44.0633 72.8584 44.5015V44.6347C72.8584 45.0729 72.7641 45.4307 72.5755 45.7081C72.3925 45.9854 72.1345 46.1907 71.8017 46.3238C71.4744 46.4569 71.0889 46.5235 70.6451 46.5235H69.1639Z" fill="#2D2D2D"/>
<path d="M64.4954 48.87C63.9462 48.87 63.483 48.7646 63.1058 48.5538C62.7341 48.3374 62.4512 48.0379 62.257 47.6551C62.0684 47.2668 61.9741 46.8175 61.9741 46.3071V42.6459H62.7896V46.407C62.7896 46.7454 62.8534 47.0449 62.9809 47.3056C63.1141 47.5608 63.3082 47.7605 63.5634 47.9048C63.8186 48.049 64.1292 48.1211 64.4954 48.1211C64.8615 48.1211 65.1693 48.0518 65.419 47.9131C65.6742 47.7688 65.8655 47.5691 65.9931 47.314C66.1263 47.0532 66.1928 46.7509 66.1928 46.407V42.6459H67.0083V46.3071C67.0083 46.8175 66.914 47.2668 66.7254 47.6551C66.5368 48.0379 66.2566 48.3374 65.885 48.5538C65.5133 48.7646 65.0501 48.87 64.4954 48.87Z" fill="#2D2D2D"/>
<path d="M57.6121 48.87C57.0684 48.87 56.5997 48.7729 56.2058 48.5788C55.812 48.3846 55.4875 48.1294 55.2323 47.8132C54.9771 47.497 54.7857 47.1587 54.6582 46.7981C54.5361 46.4375 54.4751 46.0908 54.4751 45.758V45.5749C54.4751 45.2143 54.5389 44.851 54.6665 44.4849C54.7941 44.1187 54.9882 43.7859 55.2489 43.4864C55.5097 43.1813 55.8342 42.9372 56.2225 42.7541C56.6163 42.5711 57.0795 42.4795 57.6121 42.4795C58.1446 42.4795 58.605 42.5711 58.9934 42.7541C59.3872 42.9372 59.7145 43.1813 59.9752 43.4864C60.2359 43.7859 60.4301 44.1187 60.5577 44.4849C60.6853 44.851 60.7491 45.2143 60.7491 45.5749V45.758C60.7491 46.0908 60.6853 46.4375 60.5577 46.7981C60.4356 47.1587 60.247 47.497 59.9919 47.8132C59.7367 48.1294 59.4122 48.3846 59.0183 48.5788C58.6245 48.7729 58.1557 48.87 57.6121 48.87ZM57.6121 48.1211C57.9671 48.1211 58.2861 48.0545 58.569 47.9214C58.8574 47.7883 59.1015 47.608 59.3012 47.3805C59.5009 47.1476 59.6535 46.8868 59.7589 46.5984C59.8643 46.3044 59.917 45.9965 59.917 45.6748C59.917 45.3364 59.8643 45.0202 59.7589 44.7262C59.6535 44.4322 59.5009 44.1742 59.3012 43.9523C59.1015 43.7249 58.8574 43.5474 58.569 43.4198C58.2861 43.2922 57.9671 43.2284 57.6121 43.2284C57.2571 43.2284 56.9353 43.2922 56.6469 43.4198C56.3639 43.5474 56.1226 43.7249 55.9229 43.9523C55.7232 44.1742 55.5707 44.4322 55.4653 44.7262C55.3599 45.0202 55.3072 45.3364 55.3072 45.6748C55.3072 45.9965 55.3599 46.3044 55.4653 46.5984C55.5707 46.8868 55.7232 47.1476 55.9229 47.3805C56.1226 47.608 56.3639 47.7883 56.6469 47.9214C56.9353 48.0545 57.2571 48.1211 57.6121 48.1211Z" fill="#2D2D2D"/>
<path d="M50.8478 46.3571L48.9174 42.6459H49.7661L51.397 45.8245L51.0808 45.733H52.0627L51.7298 45.8245L53.2609 42.6459H54.0597L52.2457 46.3571H50.8478ZM51.1474 48.7202V46.1906H51.9462V48.7202H51.1474Z" fill="#2D2D2D"/>
<path d="M41.8398 48.7535V48.0046H43.3542C43.7204 48.0046 44.0449 47.9464 44.3278 47.8299C44.6162 47.7078 44.8603 47.5414 45.06 47.3306C45.2653 47.1198 45.4206 46.873 45.526 46.5901C45.6314 46.3072 45.6841 46.0021 45.6841 45.6748C45.6841 45.3308 45.6314 45.0202 45.526 44.7428C45.4206 44.4599 45.2653 44.2158 45.06 44.0106C44.8603 43.7998 44.6162 43.6389 44.3278 43.528C44.0449 43.417 43.7204 43.3616 43.3542 43.3616H41.8398V42.6127H43.271C43.8202 42.6127 44.2973 42.6987 44.7022 42.8706C45.1072 43.037 45.4428 43.2645 45.7091 43.5529C45.9809 43.8358 46.1833 44.1548 46.3165 44.5098C46.4496 44.8593 46.5162 45.2171 46.5162 45.5832V45.7663C46.5162 46.1213 46.4496 46.4763 46.3165 46.8314C46.1833 47.1864 45.9809 47.5081 45.7091 47.7966C45.4428 48.0851 45.1072 48.318 44.7022 48.4956C44.2973 48.6675 43.8202 48.7535 43.271 48.7535H41.8398ZM41.1908 48.7535V42.6127H42.0062V48.7535H41.1908Z" fill="#2D2D2D"/>
<path d="M34.1294 48.7202V42.6459H35.4607L38.5478 47.988H38.8141L38.6477 48.1377V42.6459H39.4298V48.7202H38.0818L34.9948 43.3782H34.7285L34.8949 43.2284V48.7202H34.1294Z" fill="#2D2D2D"/>
<path d="M29.6508 48.87C29.1071 48.87 28.6384 48.7729 28.2445 48.5788C27.8507 48.3846 27.5262 48.1294 27.271 47.8132C27.0158 47.497 26.8244 47.1587 26.6969 46.7981C26.5748 46.4375 26.5138 46.0908 26.5138 45.758V45.5749C26.5138 45.2143 26.5776 44.851 26.7052 44.4849C26.8328 44.1187 27.0269 43.7859 27.2876 43.4864C27.5484 43.1813 27.8729 42.9372 28.2612 42.7541C28.655 42.5711 29.1182 42.4795 29.6508 42.4795C30.1833 42.4795 30.6437 42.5711 31.0321 42.7541C31.4259 42.9372 31.7532 43.1813 32.0139 43.4864C32.2746 43.7859 32.4688 44.1187 32.5964 44.4849C32.724 44.851 32.7878 45.2143 32.7878 45.5749V45.758C32.7878 46.0908 32.724 46.4375 32.5964 46.7981C32.4743 47.1587 32.2857 47.497 32.0306 47.8132C31.7754 48.1294 31.4509 48.3846 31.057 48.5788C30.6632 48.7729 30.1944 48.87 29.6508 48.87ZM29.6508 48.1211C30.0058 48.1211 30.3248 48.0545 30.6077 47.9214C30.8961 47.7883 31.1402 47.608 31.3399 47.3805C31.5396 47.1476 31.6922 46.8868 31.7976 46.5984C31.903 46.3044 31.9557 45.9965 31.9557 45.6748C31.9557 45.3364 31.903 45.0202 31.7976 44.7262C31.6922 44.4322 31.5396 44.1742 31.3399 43.9523C31.1402 43.7249 30.8961 43.5474 30.6077 43.4198C30.3248 43.2922 30.0058 43.2284 29.6508 43.2284C29.2958 43.2284 28.974 43.2922 28.6856 43.4198C28.4026 43.5474 28.1613 43.7249 27.9616 43.9523C27.7619 44.1742 27.6094 44.4322 27.504 44.7262C27.3986 45.0202 27.3459 45.3364 27.3459 45.6748C27.3459 45.9965 27.3986 46.3044 27.504 46.5984C27.6094 46.8868 27.7619 47.1476 27.9616 47.3805C28.1613 47.608 28.4026 47.7883 28.6856 47.9214C28.974 48.0545 29.2958 48.1211 29.6508 48.1211Z" fill="#2D2D2D"/>
<path d="M22.8866 46.3571L20.9562 42.6459H21.8049L23.4358 45.8245L23.1196 45.733H24.1015L23.7686 45.8245L25.2997 42.6459H26.0985L24.2845 46.3571H22.8866ZM23.1862 48.7202V46.1906H23.985V48.7202H23.1862Z" fill="#2D2D2D"/>
<path d="M16.7157 48.7202V42.6459H17.5311V48.7202H16.7157ZM17.3647 48.7202V47.988H20.3103V48.7202H17.3647ZM17.3647 45.9993V45.267H20.0524V45.9993H17.3647ZM17.3647 43.3782V42.6459H20.2271V43.3782H17.3647Z" fill="#2D2D2D"/>
<path d="M11.7091 48.7535V48.0379H13.4066C13.7338 48.0379 13.9862 47.9464 14.1638 47.7633C14.3468 47.5747 14.4384 47.3251 14.4384 47.0144C14.4384 46.6982 14.3496 46.4514 14.1721 46.2739C13.9946 46.0908 13.7394 45.9993 13.4066 45.9993H11.7091V45.4667H13.2901C13.6784 45.4667 14.0195 45.5139 14.3135 45.6082C14.6131 45.7025 14.8461 45.8606 15.0125 46.0825C15.1845 46.2988 15.2704 46.5956 15.2704 46.9728V47.0893C15.2704 47.4443 15.1983 47.7467 15.0541 47.9963C14.9099 48.2404 14.6908 48.429 14.3967 48.5621C14.1027 48.6897 13.7338 48.7535 13.2901 48.7535H11.7091ZM11.0601 48.7535V42.6127H11.8755V48.7535H11.0601ZM11.7091 45.8495V45.317H13.1819C13.5258 45.317 13.7782 45.2254 13.9391 45.0424C14.1055 44.8538 14.1887 44.6152 14.1887 44.3268C14.1887 44.0328 14.1055 43.7942 13.9391 43.6112C13.7782 43.4226 13.5258 43.3283 13.1819 43.3283H11.7091V42.6127H13.0404C13.7061 42.6127 14.2026 42.7541 14.5299 43.037C14.8572 43.3144 15.0208 43.7166 15.0208 44.2436V44.3601C15.0208 44.7317 14.9376 45.0285 14.7712 45.2504C14.6048 45.4667 14.3718 45.6221 14.0722 45.7164C13.7782 45.8051 13.4343 45.8495 13.0404 45.8495H11.7091Z" fill="#2D2D2D"/>
<path d="M107.108 32.652V9.36176H111.355V32.652H107.108ZM109.255 5.66272C108.494 5.66272 107.824 5.38872 107.245 4.84072C106.697 4.26227 106.423 3.59248 106.423 2.83136C106.423 2.07024 106.697 1.41568 107.245 0.867675C107.824 0.289225 108.494 0 109.255 0C110.016 0 110.67 0.289225 111.218 0.867675C111.797 1.41568 112.086 2.07024 112.086 2.83136C112.086 3.59248 111.797 4.26227 111.218 4.84072C110.67 5.38872 110.016 5.66272 109.255 5.66272Z" fill="#2D2D2D"/>
<path d="M96.6666 32.652C94.5963 32.652 92.9675 32.0583 91.7802 30.871C90.6233 29.6836 90.0448 28.07 90.0448 26.0302V3.51636H94.2462V25.7562C94.2462 26.7609 94.5202 27.5677 95.0682 28.1766C95.6467 28.755 96.4382 29.0443 97.4429 29.0443H102.147V32.652H96.6666ZM86.0261 12.9695V9.36175H102.238V12.9695H86.0261Z" fill="#2D2D2D"/>
<path d="M60.1033 32.652V19.1802C60.1033 17.1099 60.5599 15.2985 61.4733 13.7458C62.4171 12.1931 63.711 10.9905 65.355 10.1381C66.999 9.2552 68.8714 8.81375 70.972 8.81375C73.1032 8.81375 74.9755 9.2552 76.5891 10.1381C78.2331 10.9905 79.5118 12.1931 80.4251 13.7458C81.3689 15.2985 81.8408 17.1099 81.8408 19.1802V32.652H77.6395V19.2259C77.6395 17.8254 77.3198 16.6228 76.6804 15.6182C76.0715 14.583 75.2495 13.7915 74.2144 13.2435C73.2097 12.6955 72.1289 12.4215 70.972 12.4215C69.8151 12.4215 68.7191 12.6955 67.684 13.2435C66.6793 13.7915 65.8573 14.583 65.218 15.6182C64.6091 16.6228 64.3046 17.8254 64.3046 19.2259V32.652H60.1033Z" fill="#2D2D2D"/>
<path d="M45.8865 32.652C43.3291 32.652 41.061 32.1801 39.0821 31.2363C37.1032 30.2621 35.5505 28.9073 34.424 27.1719C33.328 25.4061 32.78 23.3511 32.78 21.0069C32.78 18.6931 33.2519 16.6228 34.1957 14.7961C35.1395 12.939 36.4486 11.4777 38.1231 10.4121C39.7975 9.34654 41.746 8.81375 43.9685 8.81375C46.3736 8.81375 48.3677 9.33131 49.9509 10.3664C51.5644 11.4016 52.767 12.802 53.5586 14.5678C54.3501 16.3032 54.7459 18.2516 54.7459 20.4132C54.7459 20.7481 54.7307 21.0982 54.7003 21.4635C54.7003 21.8289 54.6698 22.1486 54.6089 22.4226H37.2554C37.4076 23.8535 37.8795 25.0712 38.6711 26.0759C39.4627 27.0502 40.4673 27.7961 41.6851 28.3136C42.9334 28.8007 44.3034 29.0443 45.7952 29.0443H51.8689V32.652H45.8865ZM37.2097 19.4542H50.4989C50.4989 18.8757 50.438 18.2668 50.3162 17.6275C50.1944 16.9577 49.9813 16.3184 49.6769 15.7095C49.3724 15.0701 48.9614 14.5069 48.4439 14.0198C47.9567 13.5022 47.3326 13.0912 46.5715 12.7868C45.8408 12.4823 44.9732 12.3301 43.9685 12.3301C42.9029 12.3301 41.9591 12.5432 41.1371 12.9695C40.3456 13.3652 39.6605 13.9132 39.0821 14.6135C38.5036 15.2833 38.0622 16.0444 37.7577 16.8968C37.4533 17.7493 37.2706 18.6017 37.2097 19.4542Z" fill="#2D2D2D"/>
<path d="M15.2985 33.2C14.2025 33.2 13.2435 32.926 12.4215 32.378C11.5994 31.7996 10.9449 30.871 10.4578 29.5923L0 0.685028H4.79505L14.0655 27.8113C14.2177 28.2071 14.3851 28.5267 14.5678 28.7703C14.7505 29.0139 14.994 29.1356 15.2985 29.1356C15.6334 29.1356 15.8922 29.0139 16.0748 28.7703C16.2575 28.5267 16.4249 28.2071 16.5772 27.8113L26.0303 0.685028H30.6426L20.1849 29.5923C19.7282 30.8405 19.0736 31.7539 18.2212 32.3323C17.3992 32.9108 16.4249 33.2 15.2985 33.2Z" fill="#2D2D2D"/>
</svg>
