<svg width="41" height="49" viewBox="0 0 41 49" fill="none" xmlns="http://www.w3.org/2000/svg">
<g clip-path="url(#clip0_337_43)">
<path d="M32.22 34.7878L30.7508 34.0955C30.44 33.9491 30.0889 34.1314 29.9663 34.5028C29.8437 34.8741 29.9964 35.2939 30.3072 35.4403L31.7763 36.1326C32.6281 36.534 33.3237 37.3412 33.6847 38.347C34.7195 41.2309 35.2442 44.2842 35.2442 47.4224C35.2442 47.4952 35.1947 47.5544 35.1338 47.5544H30.4355C30.4204 46.6102 30.2861 45.329 30.0832 44.34C30.0037 43.9523 29.6763 43.7149 29.3518 43.8101C29.0275 43.9051 28.829 44.2965 28.9085 44.6842C29.0974 45.6053 29.2102 46.7719 29.2259 47.5544H23.4089L25.58 33.2126L28.0433 34.3734C28.1161 34.4077 28.1912 34.424 28.265 34.424C28.5061 34.424 28.7339 34.2504 28.8278 33.9661C28.9504 33.5948 28.7978 33.175 28.487 33.0286L25.1277 31.4456C24.97 31.3712 24.868 31.1922 24.868 30.9894V28.2593C24.868 28.256 24.8676 28.2529 24.8676 28.2497C25.4108 27.7678 25.9034 27.2318 26.3407 26.6459C26.7776 27.297 27.4481 27.715 28.1992 27.715C28.9442 27.715 29.6383 27.2915 30.0828 26.6084C30.3677 26.7478 30.6747 26.8214 30.9859 26.8214C32.1038 26.8214 33.0444 25.8962 33.2995 24.6528C34.5586 24.5794 35.5641 23.3321 35.5641 21.8094C35.5641 21.44 35.5052 21.0806 35.3928 20.7468C36.1687 20.2728 36.6986 19.305 36.6986 18.2097C36.6986 17.4269 36.4319 16.6979 35.9812 16.1722C36.2941 15.6847 36.4687 15.0824 36.4687 14.443C36.4687 13.5081 36.0831 12.6474 35.4654 12.122C35.5306 11.8603 35.5641 11.5872 35.5641 11.3106C35.5641 9.97895 34.7951 8.85793 33.7598 8.54856C33.6826 7.06161 32.6459 5.88007 31.3827 5.88007C31.3166 5.88007 31.2508 5.88325 31.1857 5.88961C31.1872 5.84431 31.1879 5.79901 31.1879 5.75372C31.1879 4.00395 30.0969 2.55304 28.6852 2.32155C28.31 1.34066 27.4891 0.692833 26.5557 0.692833C26.2037 0.692833 25.8608 0.786604 25.5494 0.963836C25.1111 0.376051 24.4761 0.0230334 23.7982 0.0230334C23.2371 0.0230334 22.698 0.266281 22.2779 0.693604C21.9828 0.537381 21.663 0.45662 21.3322 0.45662C20.9487 0.45662 20.5776 0.567161 20.2456 0.775329C19.8148 0.285556 19.2363 0 18.6289 0C17.975 0 17.3611 0.328346 16.9252 0.878834C16.5184 0.574003 16.0443 0.407566 15.5545 0.407566C14.501 0.407566 13.5666 1.18511 13.1719 2.30584C13.0784 2.29486 12.9844 2.28927 12.8903 2.28927C11.2919 2.28927 9.99151 3.84339 9.99151 5.75362C9.99151 5.79892 9.99232 5.84421 9.99377 5.88951C9.92853 5.88315 9.86281 5.87997 9.79677 5.87997C8.53355 5.87997 7.49685 7.06151 7.4196 8.54847C6.38435 8.85783 5.61529 9.97885 5.61529 11.3105C5.61529 11.5871 5.64884 11.8602 5.71399 12.1219C5.09637 12.6473 4.71076 13.5081 4.71076 14.4429C4.71076 15.0823 4.88534 15.6845 5.19822 16.1721C4.74745 16.6979 4.48085 17.4268 4.48085 18.2096C4.48085 19.3049 5.01082 20.2727 5.78665 20.7467C5.67432 21.0805 5.61537 21.4398 5.61537 21.8093C5.61537 23.3319 6.62086 24.5792 7.87989 24.6527C8.13503 25.8961 9.07561 26.8213 10.1936 26.8213C10.5048 26.8213 10.8119 26.7477 11.0968 26.6083C11.5412 27.2914 12.2353 27.7149 12.9803 27.7149C13.6199 27.7149 14.2009 27.4116 14.6292 26.9197C15.0108 27.3982 15.4306 27.8429 15.8874 28.2483V30.9894C15.8874 31.1921 15.7854 31.3712 15.6276 31.4456L15.249 31.624C15.2474 31.6247 15.2456 31.6256 15.2439 31.6264L8.53524 34.7878C7.38508 35.3298 6.44612 36.4194 5.95889 37.7773C4.85889 40.8423 4.30127 44.0873 4.30127 47.4223C4.30127 48.2922 4.89349 49 5.62134 49H35.1338C35.8616 49 36.4538 48.2922 36.4538 47.4224C36.4538 44.0873 35.8962 40.8422 34.7963 37.7773C34.3091 36.4194 33.3701 35.3297 32.22 34.7878ZM18.3958 47.5544L16.3675 34.1559C17.4779 35.2192 18.8614 35.8151 20.3232 35.8297C20.3415 35.8299 20.3599 35.83 20.3783 35.83C21.7673 35.83 23.0906 35.3038 24.1791 34.346L22.1797 47.5545H18.3958V47.5544ZM17.0968 30.9893V29.1608C18.1234 29.7882 19.2511 30.1031 20.3795 30.1031C21.5063 30.1031 22.6329 29.7889 23.6583 29.1632V30.9893C23.6583 31.5456 23.853 32.0563 24.1807 32.4149C23.1989 33.6723 21.8334 34.3843 20.378 34.3843C20.3631 34.3843 20.3483 34.3842 20.3333 34.3841C18.891 34.3697 17.5441 33.657 16.5741 32.4151C16.902 32.0564 17.0968 31.5456 17.0968 30.9893ZM12.9802 26.2692C12.4956 26.2692 12.0548 25.9052 11.8833 25.3634C11.8144 25.1458 11.6622 24.9812 11.4742 24.921C11.2862 24.8607 11.0855 24.9123 10.9348 25.0596C10.7234 25.2664 10.467 25.3756 10.1934 25.3756C9.54695 25.3756 9.0211 24.747 9.0211 23.9745C9.0211 23.9518 9.02166 23.9293 9.02255 23.9069C9.03158 23.6794 8.9503 23.4601 8.80337 23.3152C8.65628 23.1702 8.46057 23.1166 8.27558 23.1704C8.18398 23.197 8.09036 23.2105 7.99722 23.2105C7.35073 23.2105 6.82488 22.582 6.82488 21.8094C6.82488 21.4421 6.94334 21.0947 7.15841 20.8314C7.32243 20.6305 7.37436 20.3342 7.29138 20.0715C7.20848 19.8088 7.00576 19.6273 6.77158 19.6059C6.16525 19.5506 5.69036 18.9373 5.69036 18.2097C5.69036 17.6471 5.97018 17.141 6.40322 16.9202C6.61135 16.8141 6.75255 16.578 6.769 16.3081C6.78553 16.0384 6.67473 15.7802 6.48176 15.6389C6.13025 15.3816 5.92035 14.9345 5.92035 14.4429C5.92035 13.8525 6.23283 13.3223 6.69787 13.1234C6.87076 13.0495 7.00616 12.8858 7.06591 12.6784C7.12567 12.471 7.10349 12.2423 7.00535 12.0568C6.8873 11.8335 6.82496 11.5755 6.82496 11.3105C6.82496 10.538 7.35081 9.90946 7.9973 9.90946C8.00988 9.90946 8.02246 9.91014 8.04044 9.911C8.22494 9.91852 8.40735 9.82321 8.52718 9.65118C8.64701 9.47915 8.69346 9.25046 8.65282 9.03198C8.63419 8.93117 8.62459 8.82843 8.62459 8.72676C8.62459 7.95423 9.15044 7.32568 9.79685 7.32568C10.0509 7.32568 10.2925 7.42118 10.4957 7.60179C10.7222 7.80311 11.0348 7.79049 11.2494 7.57172C11.464 7.35285 11.5234 6.98567 11.3926 6.68691C11.2656 6.39663 11.2012 6.08264 11.2012 5.75372C11.2012 4.6406 11.9589 3.73497 12.8903 3.73497C13.0662 3.73497 13.2417 3.76842 13.4118 3.83443C13.5811 3.90006 13.7661 3.87327 13.9174 3.76109C14.0688 3.64891 14.1711 3.46272 14.1969 3.25214C14.2952 2.45465 14.8788 1.85327 15.5547 1.85327C15.9511 1.85327 16.3284 2.05884 16.5896 2.41725C16.7247 2.60268 16.9296 2.69327 17.133 2.65761C17.3366 2.62205 17.5111 2.46534 17.5962 2.24147C17.78 1.75805 18.1854 1.44571 18.629 1.44571C19.0305 1.44571 19.4061 1.70399 19.6091 2.11965C19.7024 2.31076 19.8637 2.44019 20.0471 2.47103C20.2305 2.50177 20.4155 2.43065 20.5493 2.2778C20.7615 2.03551 21.0395 1.90204 21.3323 1.90204C21.5836 1.90204 21.8217 1.99851 22.021 2.18094C22.1506 2.29977 22.3148 2.35075 22.4764 2.32252C22.638 2.29428 22.7832 2.18913 22.8789 2.03099C23.0921 1.67874 23.4357 1.46845 23.7982 1.46845C24.241 1.46845 24.6462 1.78012 24.8303 2.26238C24.9107 2.47296 25.0705 2.62475 25.2604 2.67072C25.4499 2.71678 25.6468 2.65134 25.7894 2.49483C25.9991 2.26488 26.2712 2.13825 26.5557 2.13825C27.0839 2.13825 27.5375 2.56663 27.6589 3.18005C27.7236 3.50666 27.9674 3.73652 28.2474 3.73652C28.2508 3.73652 28.2543 3.73652 28.2576 3.73642C28.2693 3.73623 28.2807 3.73565 28.2958 3.73478C29.2243 3.73892 29.9784 4.64301 29.9784 5.75353C29.9784 6.08245 29.914 6.39644 29.787 6.68681C29.6562 6.98557 29.7158 7.35276 29.9303 7.57153C30.1451 7.79039 30.4577 7.80282 30.684 7.6015C30.887 7.42099 31.1286 7.32548 31.3827 7.32548C32.0291 7.32548 32.555 7.95403 32.555 8.72657C32.555 8.82834 32.5455 8.93098 32.5268 9.03178C32.4861 9.25036 32.5353 9.47886 32.6552 9.65089C32.7751 9.82292 32.9585 9.9191 33.1449 9.91052C33.1573 9.90994 33.1697 9.90927 33.1823 9.90927C33.8288 9.90927 34.3546 10.5378 34.3546 11.3104C34.3546 11.5753 34.2923 11.8333 34.1742 12.0566C34.0761 12.2421 34.0539 12.4707 34.1137 12.6782C34.1734 12.8856 34.3089 13.0493 34.4817 13.1232C34.9468 13.3221 35.2592 13.8523 35.2592 14.4427C35.2592 14.9343 35.0493 15.3814 34.6978 15.6387C34.5048 15.78 34.394 16.0382 34.4106 16.3079C34.427 16.5777 34.5682 16.8138 34.7764 16.92C35.2094 17.1408 35.4892 17.6469 35.4892 18.2095C35.4892 18.9371 35.0143 19.5503 34.4081 19.6057C34.1739 19.6271 33.9712 19.8086 33.8883 20.0713C33.8054 20.3339 33.8572 20.6302 34.0213 20.8312C34.2362 21.0946 34.3547 21.4421 34.3547 21.8093C34.3547 22.5819 33.8289 23.2104 33.1824 23.2104C33.0892 23.2104 32.9956 23.1969 32.904 23.1703C32.7189 23.1166 32.5233 23.1701 32.3762 23.3151C32.2293 23.46 32.148 23.6793 32.157 23.9068C32.1579 23.9292 32.1585 23.9517 32.1585 23.9744C32.1585 24.7469 31.6326 25.3755 30.9862 25.3755C30.7125 25.3755 30.4562 25.2662 30.2448 25.0595C30.0941 24.9122 29.8933 24.8606 29.7054 24.9209C29.5174 24.9811 29.3651 25.1457 29.2963 25.3633C29.1248 25.9051 28.684 26.2691 28.1994 26.2691C27.5529 26.2691 27.0271 25.6406 27.0271 24.8681C27.0271 24.181 27.4379 23.6001 28.0038 23.4868C28.239 23.4398 28.4292 23.2317 28.4892 22.9558C28.5492 22.6799 28.4679 22.3876 28.2817 22.2095C28.0012 21.9414 27.8402 21.5424 27.8402 21.1147C27.8402 20.7298 27.9687 20.3706 28.2019 20.1034C28.3467 19.9376 28.4132 19.6967 28.3796 19.4604C28.3459 19.2241 28.2166 19.0231 28.034 18.9238C27.379 18.5673 26.8862 17.8576 26.7157 17.0253C26.649 16.7005 26.4054 16.4745 26.1285 16.4745C26.117 16.4745 26.1055 16.4748 26.0939 16.4756C26.0613 16.4778 26.0284 16.4793 25.9953 16.4793C25.0579 16.4793 24.2948 15.57 24.2912 14.4506C24.2914 14.4438 24.2916 14.4347 24.2916 14.4307C24.2939 14.2209 24.2199 14.0203 24.0887 13.8809C23.9575 13.7416 23.7826 13.6772 23.608 13.7046C23.5422 13.7149 23.4806 13.72 23.4198 13.72C22.8699 13.72 22.3626 13.3354 22.1275 12.7402C22.0569 12.5616 21.9284 12.4253 21.7716 12.363C21.615 12.3006 21.4436 12.3176 21.2976 12.41C21.0768 12.5497 20.8374 12.6206 20.5862 12.6206C20.3368 12.6206 20.0989 12.5506 19.8792 12.4125C19.7333 12.3208 19.5624 12.3044 19.4063 12.3666C19.2501 12.429 19.1218 12.5648 19.0513 12.7427C18.8158 13.3363 18.309 13.7199 17.7599 13.7199C17.6991 13.7199 17.6375 13.7149 17.5716 13.7045C17.3974 13.6771 17.2222 13.7416 17.091 13.8808C16.9598 14.0202 16.8858 14.2208 16.888 14.4306C16.888 14.434 16.8883 14.4431 16.8884 14.4502C16.885 15.5697 16.1219 16.4792 15.1844 16.4792C15.1513 16.4792 15.1185 16.4777 15.0857 16.4755C14.7947 16.4561 14.5332 16.6869 14.464 17.0252C14.2935 17.8575 13.8007 18.5672 13.1456 18.9237C12.9631 19.0231 12.8337 19.224 12.8001 19.4603C12.7665 19.6966 12.833 19.9375 12.9778 20.1033C13.211 20.3705 13.3394 20.7297 13.3394 21.1146C13.3394 21.4256 13.3077 21.4811 12.9148 21.8565C12.7284 22.0346 12.6471 22.3269 12.7071 22.6028C12.7671 22.8788 12.9573 23.0868 13.1926 23.1338C13.6771 23.2308 14.1526 24.0897 14.1526 24.8679C14.1525 25.6408 13.6266 26.2692 12.9802 26.2692ZM15.2762 25.6241C15.3319 25.3832 15.3621 25.1299 15.3621 24.8681C15.3621 24.2046 15.172 23.4897 14.8403 22.9067C14.6847 22.6333 14.5057 22.4002 14.3096 22.2129C14.4541 21.9366 14.5489 21.5899 14.5489 21.1148C14.5489 20.6463 14.4556 20.1968 14.279 19.7951C14.8229 19.316 15.2486 18.6572 15.4963 17.9052C16.7601 17.7437 17.7849 16.6124 18.0379 15.1479C18.7523 15.0561 19.4067 14.6153 19.8443 13.9434C20.3278 14.1062 20.8507 14.1054 21.3338 13.9415C21.7715 14.6145 22.4261 15.0561 23.1415 15.1479C23.3944 16.6124 24.4192 17.7436 25.6831 17.9051C25.9306 18.6571 26.3565 19.3159 26.9004 19.795C26.7239 20.1967 26.6304 20.6462 26.6304 21.1147C26.6304 21.5952 26.7302 22.0578 26.9155 22.4673C26.2474 22.9757 25.8172 23.8664 25.8172 24.8681C25.8172 24.9538 25.821 25.0384 25.8272 25.1223C25.2249 26.063 24.4711 26.8808 23.5845 27.5525C21.6376 29.0271 19.1219 29.0271 17.1753 27.5528C16.4495 27.0035 15.8119 26.3543 15.2762 25.6241ZM5.51086 47.4223C5.51086 44.2843 6.03558 41.231 7.07035 38.347C7.43137 37.3412 8.12689 36.5341 8.97876 36.1326L15.0075 33.2915L17.1666 47.5543H11.5292C11.545 46.7718 11.6577 45.6052 11.8466 44.6841C11.9261 44.2964 11.7276 43.905 11.4033 43.81C11.0783 43.7149 10.7513 43.9522 10.6719 44.3399C10.469 45.329 10.3347 46.6101 10.3196 47.5543H5.62134C5.56037 47.5544 5.51086 47.4951 5.51086 47.4223Z" fill="#00ADB5"/>
</g>
<defs>
<clipPath id="clip0_337_43">
<rect width="41" height="49" fill="white"/>
</clipPath>
</defs>
</svg>
