<svg width="41" height="49" viewBox="0 0 41 49" fill="none" xmlns="http://www.w3.org/2000/svg">
<g clip-path="url(#clip0_336_41)">
<path d="M41.192 28.5068C40.6203 27.9256 39.8247 27.5776 38.9496 27.5262C38.0745 27.4739 37.2324 27.7264 36.5782 28.235L35.7908 28.8483C35.7495 28.8015 35.7072 28.7547 35.6628 28.7097C34.4781 27.5051 32.4091 27.383 31.05 28.4379L27.3112 31.3503H13.8814C11.7133 31.3503 9.86093 32.06 8.37389 33.4584L6.53702 35.1836L6.06748 34.5069C5.86212 34.2113 5.53912 34.0047 5.1573 33.9248C4.77548 33.8449 4.38333 33.9009 4.05208 34.0827L0.694105 35.9254C0.361817 36.1081 0.129628 36.3955 0.039848 36.7352C-0.0499318 37.075 0.0130172 37.4239 0.218376 37.7186L6.91884 47.3784C7.12316 47.675 7.44617 47.8834 7.82696 47.9642C7.94047 47.9881 8.05605 48 8.16956 48C8.43684 48 8.69999 47.9339 8.93218 47.8063L12.2953 45.9608C12.9764 45.5807 13.1879 44.7773 12.7669 44.1704L12.3954 43.6342H23.8831C25.7767 43.6342 27.4588 43.0714 28.8819 41.9613C32.7692 38.9351 36.6576 35.9052 40.545 32.8763L40.8866 32.61C42.2425 31.5541 42.3788 29.7132 41.192 28.5068ZM32.1356 29.5425C32.7981 29.0283 33.8445 29.0889 34.4234 29.6784C34.4678 29.7224 34.507 29.7702 34.5442 29.8188L30.4215 33.0305C30.2781 32.756 30.0862 32.5007 29.8498 32.2758C29.662 32.0968 29.4515 31.9416 29.2224 31.8112L32.1356 29.5425ZM8.22632 46.4694L1.71883 37.0887L4.76206 35.4195L11.2665 44.8021L8.22632 46.4694ZM39.7989 31.5064L39.4573 31.7727C35.5699 34.8016 31.6816 37.8306 27.7942 40.8577C26.6642 41.7382 25.3856 42.167 23.8831 42.167H11.3779L7.43378 36.4772L9.57302 34.4683C10.736 33.3739 12.1859 32.8193 13.8824 32.8193H27.464C27.9149 32.8193 28.3339 32.9819 28.6445 33.2784C28.9397 33.5603 29.0914 33.9211 29.079 34.2994C29.0542 35.0752 28.3401 35.7005 27.464 35.7005H13.4831C13.027 35.7005 12.6586 36.0292 12.6586 36.4341C12.6586 36.839 13.028 37.1677 13.4831 37.1677H27.4629C29.0625 37.1677 30.3968 36.1384 30.6754 34.7851L37.6648 29.3396C37.9868 29.0889 38.4047 28.965 38.8392 28.9907C39.2736 29.0164 39.6689 29.1881 39.9496 29.4736C40.5388 30.0713 40.4707 30.983 39.7989 31.5064ZM20.9988 11.4972C16.4892 11.4972 12.8195 14.7612 12.8195 18.7744C12.8195 22.7886 16.4881 26.0544 20.9988 26.0544C25.5105 26.0544 29.1811 22.7886 29.1811 18.7744C29.1801 14.7621 25.5094 11.4972 20.9988 11.4972ZM20.9988 24.5863C17.3983 24.5863 14.4696 21.9797 14.4696 18.7744C14.4696 15.571 17.3983 12.9653 20.9988 12.9653C24.6003 12.9653 27.531 15.571 27.531 18.7744C27.53 21.9788 24.6003 24.5863 20.9988 24.5863ZM24.9543 16.4185C25.2762 16.7049 25.2762 17.1695 24.9543 17.456L20.8244 21.1313C20.6634 21.2745 20.4519 21.3462 20.2413 21.3462C20.0308 21.3462 19.8193 21.2745 19.6583 21.1313L17.0464 18.8075C16.7244 18.521 16.7244 18.0564 17.0464 17.77C17.3684 17.4835 17.8905 17.4835 18.2125 17.77L20.2413 19.5751L23.7882 16.4194C24.1101 16.132 24.6323 16.132 24.9543 16.4185ZM15.7699 6.03329L17.7306 7.29482L16.9773 9.34505C16.7967 9.84177 16.9938 10.3789 17.4633 10.6773C17.936 10.9839 18.5716 10.9839 19.0443 10.6773L20.9978 9.4084L22.9543 10.6773C23.1917 10.8315 23.4693 10.9077 23.7469 10.9077C24.0224 10.9077 24.2969 10.8324 24.5291 10.681C25.0048 10.3789 25.2019 9.84177 25.0203 9.34321L24.268 7.29482L26.2318 6.03145C26.7024 5.72571 26.8974 5.18951 26.7179 4.69646C26.5383 4.20342 26.0254 3.87105 25.4403 3.87105L23.0194 3.87564L22.2753 1.82542C22.0958 1.33145 21.5829 1 20.9988 1C20.4116 1 19.8998 1.33329 19.7243 1.82909L18.9813 3.87564L16.5583 3.87105C15.9763 3.87105 15.4644 4.20066 15.2838 4.69187C15.0981 5.18584 15.2921 5.72295 15.7699 6.03329ZM19.2022 5.34468C19.7873 5.34468 20.3012 5.01323 20.4818 4.51834L20.9998 3.09154L21.5179 4.52018C21.6974 5.01414 22.2103 5.34559 22.7954 5.34559L24.4878 5.34192L23.1143 6.22518C22.6437 6.53092 22.4487 7.06712 22.6293 7.56109L23.1545 8.99064L21.7882 8.10371C21.5519 7.95038 21.2743 7.87326 20.9978 7.87326C20.7212 7.87326 20.4436 7.95038 20.2073 8.10371L18.8441 8.98972L19.3693 7.55925C19.5489 7.0662 19.3539 6.53001 18.8802 6.22334L17.5098 5.34192L19.2022 5.34468ZM28.5145 11.5899L30.4752 12.8533L29.7229 14.9017C29.5433 15.3947 29.7384 15.9309 30.2079 16.2367C30.4442 16.39 30.7218 16.4671 30.9984 16.4671C31.275 16.4671 31.5526 16.39 31.7889 16.2367L33.7455 14.9678L35.6989 16.2367C36.1716 16.5433 36.8073 16.5433 37.2799 16.2367C37.7505 15.9309 37.9455 15.3947 37.7649 14.9008L37.0136 12.8542L38.9702 11.5936C39.446 11.2915 39.6441 10.7544 39.4625 10.2568C39.2829 9.76281 38.77 9.43135 38.1849 9.43135L35.764 9.43594L35.0209 7.39031C34.8455 6.89176 34.3347 6.55755 33.7455 6.55755C33.1614 6.55755 32.6485 6.89084 32.4689 7.38572L31.7239 9.43594L29.3019 9.43135C28.7188 9.43135 28.2059 9.76281 28.0253 10.2568C27.8458 10.7535 28.0439 11.2906 28.5145 11.5899ZM31.9478 10.9041C32.535 10.9041 33.0489 10.5708 33.2274 10.0759L33.7455 8.64909L34.2625 10.0731C34.441 10.5699 34.9559 10.9031 35.5441 10.9031L37.2314 10.8995L35.8672 11.7791C35.3914 12.0811 35.1933 12.6182 35.3749 13.1168L35.9012 14.5491L34.537 13.6631C34.0643 13.3555 33.4286 13.3555 32.956 13.6631L31.5876 14.5509L32.1139 13.1168C32.2956 12.6201 32.0974 12.083 31.6258 11.7836L30.2575 10.9013L31.9478 10.9041ZM3.02425 11.5899L4.98496 12.8533L4.23267 14.9017C4.05311 15.3947 4.24815 15.9309 4.71769 16.2367C4.95503 16.3909 5.23263 16.468 5.50919 16.468C5.78576 16.468 6.06232 16.3909 6.29554 16.2367L8.25212 14.9669L10.2087 16.2357C10.6813 16.5433 11.317 16.5433 11.7897 16.2357C12.2592 15.9309 12.4553 15.3938 12.2747 14.8998L11.5224 12.8533L13.479 11.5918C13.9547 11.2897 14.1528 10.7526 13.9712 10.2559C13.7916 9.76189 13.2788 9.43044 12.6936 9.43044L10.2727 9.43503L9.52864 7.38756C9.35012 6.89084 8.83621 6.55755 8.25109 6.55755C7.66597 6.55755 7.15412 6.89084 6.97456 7.38572L6.2295 9.43503L3.8106 9.43044C3.22548 9.43044 2.71157 9.76189 2.53201 10.2559C2.35245 10.7526 2.55162 11.2897 3.02425 11.5899ZM6.45756 10.9041C7.04783 10.9041 7.56071 10.5699 7.73511 10.0713L8.25315 8.64542L8.77222 10.0741C8.95075 10.5708 9.46466 10.9041 10.0508 10.9041L11.7411 10.9004L10.3769 11.78C9.89499 12.0857 9.69892 12.6265 9.88467 13.1177L10.411 14.5509L9.04363 13.6631C8.80731 13.5098 8.52971 13.4326 8.25315 13.4326C7.97659 13.4326 7.69899 13.5098 7.46268 13.6631L6.09844 14.5482L6.62473 13.1159C6.80636 12.6192 6.60822 12.082 6.13662 11.7827L4.76825 10.9004L6.45756 10.9041Z" fill="#00ADB5"/>
</g>
<defs>
<clipPath id="clip0_336_41">
<rect width="41" height="49" fill="white"/>
</clipPath>
</defs>
</svg>
