<svg width="41" height="49" viewBox="0 0 41 49" fill="none" xmlns="http://www.w3.org/2000/svg">
<g clip-path="url(#clip0_335_32)">
<path d="M34.1896 1.4077C34.4539 1.16406 34.5236 0.722367 34.3513 0.380485C34.1797 0.0386021 33.82 -0.0934354 33.5161 0.0692535C27.7508 3.19021 23.2849 8.00643 20.2414 14.3851C20.0619 14.7616 20.1717 15.2418 20.4874 15.4571C20.8024 15.6717 21.2035 15.5404 21.3844 15.1632C23.3105 11.1266 25.8365 7.74393 28.9266 5.05445C23.2389 12.627 21.6007 21.758 23.6163 33.8142C23.8564 35.2501 23.5624 36.7434 22.8305 37.8099C22.2235 38.6941 21.3962 39.1814 20.4999 39.1814C19.712 39.1814 18.9887 38.7845 18.406 38.0331C17.4814 36.8393 17.0092 34.8965 17.1427 32.8365C17.4847 27.559 18.4382 22.7443 19.9764 18.5262C20.1217 18.1285 19.9692 17.6656 19.6364 17.4919C19.303 17.3158 18.9157 17.4998 18.771 17.8982C17.1736 22.2767 16.1852 27.2619 15.8314 32.7147C15.6703 35.2038 16.272 37.5914 17.4413 39.1004C18.2784 40.1819 19.3359 40.7533 20.4999 40.7533C21.7974 40.7533 22.9863 40.0624 23.8472 38.8073C24.8264 37.38 25.2222 35.3987 24.9059 33.5061C22.5477 19.3978 25.411 9.49892 34.1896 1.4077Z" fill="#00ADB5"/>
<path d="M40.8861 29.8296H27.1044C26.9124 29.8296 26.7302 29.9294 26.6053 30.1039C26.4803 30.2776 26.4257 30.5086 26.4547 30.735C26.552 31.4934 26.6651 32.2644 26.7973 33.0535C27.232 35.6542 26.7 38.2831 25.3387 40.2676C24.8928 40.9176 24.3707 41.4709 23.7867 41.9118C23.4796 42.1436 23.3882 42.6294 23.5822 42.9956C23.7755 43.3626 24.1813 43.4711 24.489 43.24C25.192 42.7095 25.8201 42.0446 26.356 41.2634C27.9685 38.9134 28.5992 35.809 28.0869 32.7446C28.0112 32.2911 27.9422 31.8432 27.8784 31.3999H40.2285V47.4267H0.771296V31.4015H2.74416C3.10716 31.4015 3.40178 31.0494 3.40178 30.6155C3.40178 30.1817 3.10716 29.8296 2.74416 29.8296H0.113675C-0.249331 29.8296 -0.543945 30.1817 -0.543945 30.6155V48.2142C-0.543945 48.6481 -0.249331 49.0002 0.113675 49.0002H40.8861C41.2491 49.0002 41.5438 48.6481 41.5438 48.2142V30.6155C41.5438 30.1817 41.2491 29.8296 40.8861 29.8296Z" fill="#00ADB5"/>
<path d="M15.0609 41.7336C16.5064 43.601 18.4384 44.6298 20.5001 44.6298C20.8631 44.6298 21.1577 44.2777 21.1577 43.8438C21.1577 43.41 20.8631 43.0579 20.5001 43.0579C18.8093 43.0579 17.2205 42.2083 16.0263 40.6663C14.4763 38.6645 13.7042 35.7015 13.9094 32.5373C13.9397 32.0658 13.9844 31.6036 14.0291 31.1423L14.0705 30.703C14.0916 30.4805 14.0317 30.2589 13.9068 30.0923C13.7825 29.9257 13.6043 29.8306 13.4169 29.8306H5.57144C5.20843 29.8306 4.91382 30.1827 4.91382 30.6165C4.91382 31.0503 5.20843 31.4024 5.57144 31.4024H12.6797C12.6488 31.738 12.6198 32.0744 12.5975 32.4163C12.3647 36.0151 13.2623 39.4119 15.0609 41.7336Z" fill="#00ADB5"/>
<path d="M17.7268 8.7113C17.6492 8.42679 17.4434 8.21931 17.1955 8.17608L15.5231 7.88607L14.7754 6.07527C14.6649 5.80727 14.4361 5.63672 14.1855 5.63672C13.9356 5.63672 13.7068 5.80648 13.5963 6.07527L12.8479 7.88607L11.1763 8.17608C10.9283 8.21931 10.7225 8.42679 10.6449 8.7113C10.5673 8.99581 10.6318 9.30783 10.8113 9.51689L12.0213 10.9269L11.7353 12.9176C11.6932 13.2124 11.7944 13.5102 11.997 13.6863C12.2002 13.8623 12.4678 13.8851 12.6895 13.746L14.1849 12.8068L15.6803 13.746C15.7763 13.8065 15.8815 13.8364 15.9861 13.8364C16.1222 13.8364 16.2584 13.7861 16.3728 13.6863C16.5753 13.5102 16.6766 13.2124 16.6339 12.9176L16.3485 10.9269L17.5585 9.51767C17.7393 9.30783 17.8038 8.99581 17.7268 8.7113ZM15.1845 10.0898C15.0293 10.2706 14.9589 10.5307 14.9951 10.7854L15.1141 11.6138L14.492 11.2224C14.3006 11.1021 14.0711 11.1021 13.8798 11.2224L13.257 11.6138L13.376 10.7854C13.4122 10.5307 13.3418 10.2706 13.1866 10.0898L12.6829 9.50274L13.3786 9.38249C13.593 9.34555 13.7778 9.18444 13.8738 8.95259L14.1855 8.19966L14.4966 8.95259C14.5926 9.18444 14.7781 9.34555 14.9918 9.38249L15.6875 9.50274L15.1845 10.0898Z" fill="#00ADB5"/>
<path d="M8.92388 16.8709C8.70226 16.3341 7.96573 16.3341 7.74411 16.8709L6.77215 19.224L4.59937 19.6012C4.35145 19.6444 4.14561 19.8519 4.06801 20.1364C3.99041 20.4209 4.05486 20.733 4.23439 20.942L5.80676 22.774L5.43586 25.3605C5.39377 25.6553 5.49505 25.9531 5.69759 26.1292C5.9008 26.306 6.16911 26.328 6.39007 26.1889L8.33334 24.9676L10.2773 26.1889C10.3733 26.2494 10.4785 26.2793 10.5831 26.2793C10.7192 26.2793 10.8553 26.229 10.9697 26.1292C11.1723 25.9531 11.2736 25.6553 11.2315 25.3605L10.8606 22.774L12.4329 20.942C12.6118 20.733 12.6769 20.4209 12.5993 20.1364C12.5217 19.8519 12.3159 19.6444 12.068 19.6012L9.89519 19.224L8.92388 16.8709ZM9.69461 21.9362C9.54007 22.117 9.46905 22.3771 9.50522 22.6318L9.70974 24.0559L8.63979 23.3839C8.54378 23.3234 8.43856 23.2935 8.33399 23.2935C8.22943 23.2935 8.12356 23.3234 8.0282 23.3839L6.95825 24.0559L7.16277 22.6318C7.19894 22.3771 7.12858 22.117 6.97338 21.9362L6.10795 20.9271L7.30416 20.7196C7.51855 20.6827 7.70334 20.5215 7.79935 20.2897L8.33399 18.9945L8.86864 20.2897C8.96465 20.5215 9.14944 20.6827 9.36383 20.7196L10.56 20.9271L9.69461 21.9362Z" fill="#00ADB5"/>
<path d="M36.2965 19.1564C36.2189 18.8719 36.0131 18.6644 35.7652 18.6212L33.5924 18.244L32.6204 15.8909C32.3988 15.3541 31.6623 15.3541 31.4406 15.8909L30.4687 18.244L28.2959 18.6212C28.048 18.6644 27.8421 18.8719 27.7645 19.1564C27.6869 19.441 27.7514 19.753 27.9309 19.962L29.5033 21.794L29.1324 24.3806C29.0903 24.6753 29.1916 24.9732 29.3941 25.1492C29.5973 25.326 29.8656 25.3481 30.0866 25.2089L32.0305 23.9876L33.9745 25.2089C34.0705 25.2695 34.1757 25.2993 34.2802 25.2993C34.4164 25.2993 34.5525 25.249 34.6669 25.1492C34.8695 24.9732 34.9707 24.6753 34.9287 24.3806L34.5578 21.794L36.1301 19.962C36.3097 19.753 36.3741 19.441 36.2965 19.1564ZM33.3918 20.9562C33.2373 21.137 33.1662 21.3971 33.2024 21.6518L33.4069 23.0759L32.337 22.4039C32.241 22.3434 32.1357 22.3136 32.0312 22.3136C31.9266 22.3136 31.8207 22.3434 31.7254 22.4039L30.6554 23.0759L30.86 21.6518C30.8961 21.3971 30.8258 21.137 30.6706 20.9562L29.8045 19.9479L31.0007 19.7404C31.2151 19.7035 31.3999 19.5423 31.4959 19.3105L32.0305 18.0153L32.5652 19.3105C32.6612 19.5423 32.846 19.7035 33.0604 19.7404L34.2566 19.9479L33.3918 20.9562Z" fill="#00ADB5"/>
</g>
<defs>
<clipPath id="clip0_335_32">
<rect width="41" height="49" fill="white"/>
</clipPath>
</defs>
</svg>
