<svg width="41" height="49" viewBox="0 0 41 49" fill="none" xmlns="http://www.w3.org/2000/svg">
<g clip-path="url(#clip0_338_46)">
<path d="M40.3994 35.2197C40.7312 35.2197 41 34.8983 41 34.5019V31.5916C41 28.4002 38.891 25.7868 36.2512 25.6366C37.5097 24.4364 38.3183 22.5896 38.3183 20.5202C38.3183 16.9113 35.8617 13.9753 32.842 13.9753C31.2113 13.9753 29.7456 14.8326 28.7415 16.1889C28.7227 16.1476 28.7029 16.1068 28.6823 16.0666V13.6452C28.6823 9.90097 26.912 6.64228 24.3196 4.99991C24.3299 4.86229 24.3363 4.72391 24.3363 4.58495C24.3362 2.05676 22.6153 0 20.5 0C18.3847 0 16.6637 2.05676 16.6637 4.58485C16.6637 4.7241 16.6701 4.86277 16.6804 5.00068C14.0887 6.64323 12.319 9.90154 12.319 13.6451V16.0666C12.2982 16.1072 12.2783 16.1484 12.2593 16.19C11.2552 14.8331 9.78923 13.9753 8.15796 13.9753C5.13829 13.9753 2.68166 16.9113 2.68166 20.5202C2.68166 22.5896 3.49037 24.4364 4.74879 25.6366C2.10902 25.7868 0 28.4002 0 31.5916V38.6229C0 39.0193 0.268902 39.3407 0.600586 39.3407C0.93227 39.3407 1.20117 39.0193 1.20117 38.6229V31.5916C1.20117 29.0955 2.90035 27.0648 4.98887 27.0648H8.15179C8.15387 27.0648 8.15588 27.065 8.15796 27.065C8.16004 27.065 8.16204 27.0648 8.16413 27.0648H11.3271C12.2829 27.0648 13.1838 27.4912 13.8723 28.2396L13.0499 28.4095C10.3715 28.9621 8.41765 31.7217 8.4042 34.9748V47.5645H4.61282V36.1288C4.61282 35.9384 4.54956 35.7558 4.43689 35.6213L3.93696 35.0238C3.70241 34.7435 3.32212 34.7435 3.08765 35.0238C2.8531 35.3041 2.8531 35.7586 3.08765 36.0388L3.41165 36.426V47.5645H1.20117V41.9725C1.20117 41.5761 0.93227 41.2547 0.600586 41.2547C0.268902 41.2547 0 41.5761 0 41.9725V48.2822C0 48.6786 0.268902 49 0.600586 49H40.3994C40.7312 49 41 48.6786 41 48.2822V37.8515C41 37.4551 40.7312 37.1338 40.3994 37.1338C40.0677 37.1338 39.7988 37.4551 39.7988 37.8515V47.5645H37.5884V36.4261L37.9123 36.0389C38.147 35.7586 38.147 35.3041 37.9124 35.0238C37.6778 34.7436 37.2975 34.7435 37.0631 35.0238L36.5632 35.6213C36.4505 35.7559 36.3873 35.9384 36.3873 36.1289V47.5645H32.5966V43.0358C32.5966 42.6394 32.3278 42.318 31.996 42.318C31.6643 42.318 31.3954 42.6394 31.3954 43.0358V47.5645H28.2235V44.5119C28.2235 44.1155 27.9546 43.7941 27.6229 43.7941C27.2911 43.7941 27.0223 44.1155 27.0223 44.5119V47.5645H13.9792V44.5119C13.9792 44.1155 13.7103 43.7941 13.3786 43.7941C13.0469 43.7941 12.778 44.1155 12.778 44.5119V47.5645H9.60537V34.9782C9.61594 32.4257 11.1505 30.2581 13.2543 29.8241L13.9855 29.673V33.5501C12.289 33.8928 10.9925 35.6602 10.9925 37.7837V40.0073C10.9925 41.149 11.7694 42.0779 12.7247 42.0785C12.806 42.3596 13.0289 42.5619 13.2918 42.5619C13.6235 42.5619 13.8924 42.2405 13.8924 41.8441V40.8773C13.8924 40.4809 13.6235 40.1595 13.2918 40.1595C13.029 40.1595 12.8061 40.3617 12.7247 40.6428C12.4319 40.6422 12.1937 40.3573 12.1937 40.0072V37.7836C12.1937 36.207 13.2669 34.9244 14.5862 34.9244C15.9054 34.9244 16.9786 36.207 16.9786 37.7836V40.0072C16.9786 40.3573 16.7404 40.6421 16.4476 40.6428C16.3662 40.3617 16.1433 40.1595 15.8805 40.1595C15.5488 40.1595 15.2799 40.4809 15.2799 40.8773V41.8441C15.2799 42.2405 15.5488 42.5619 15.8805 42.5619C16.1433 42.5619 16.3663 42.3596 16.4476 42.0785C17.4028 42.0779 18.1798 41.149 18.1798 40.0073V37.7837C18.1798 35.6602 16.8833 33.8928 15.1868 33.5501V29.425L15.5342 29.3532L20.1368 33.5453C20.2443 33.6432 20.3726 33.6922 20.5009 33.6922C20.6292 33.6922 20.7575 33.6432 20.8649 33.5453L25.4674 29.3533L25.8135 29.4248V38.1499C25.0623 38.4509 24.5193 39.2994 24.5193 40.2972C24.5193 41.5459 25.3693 42.5619 26.4141 42.5619C27.4589 42.5619 28.309 41.546 28.309 40.2972C28.309 39.2994 27.766 38.4508 27.0147 38.1499V29.6728L27.7468 29.8241C29.8505 30.2582 31.3851 32.4258 31.3956 34.9747V39.6862C31.3956 40.0826 31.6644 40.4039 31.9962 40.4039C32.3279 40.4039 32.5968 40.0826 32.5968 39.6862V34.9712C32.5833 31.7217 30.6296 28.9621 27.9512 28.4095L27.128 28.2395C27.8165 27.4911 28.7174 27.0649 29.6731 27.0649H32.836C32.8381 27.0649 32.8401 27.0651 32.8422 27.0651C32.8443 27.0651 32.8463 27.0649 32.8484 27.0649H36.0111C38.0997 27.0649 39.7988 29.0957 39.7988 31.5917V34.502C39.7988 34.8983 40.0677 35.2197 40.3994 35.2197ZM26.4139 41.1263C26.0315 41.1263 25.7203 40.7544 25.7203 40.2972C25.7203 39.8401 26.0315 39.4682 26.4139 39.4682C26.7964 39.4682 27.1076 39.8401 27.1076 40.2972C27.1076 40.7544 26.7964 41.1263 26.4139 41.1263ZM32.842 15.4108C35.1994 15.4108 37.1172 17.7028 37.1172 20.5201C37.1172 23.3349 35.2027 25.6252 32.8482 25.6292H32.8359C30.4813 25.6252 28.5668 23.3349 28.5668 20.5201C28.5668 17.7029 30.4847 15.4108 32.842 15.4108ZM27.4903 16.5576C27.7196 16.8393 27.841 17.2115 27.832 17.6055C27.8149 18.3509 27.2957 18.9622 26.6594 19.006V16.121C26.9751 16.1317 27.2689 16.2857 27.4903 16.5576ZM20.5 1.43555C21.8967 1.43555 23.0425 2.74113 23.1292 4.38473C22.3038 4.0492 21.4198 3.86708 20.5006 3.86708C19.581 3.86708 18.6965 4.04949 17.8707 4.38531C17.9572 2.74142 19.1031 1.43555 20.5 1.43555ZM20.5006 5.30262C24.3497 5.30262 27.4811 9.045 27.4811 13.6451V14.8719C27.2112 14.7494 26.9221 14.6849 26.6241 14.6849H26.4336C25.8957 14.6849 25.4582 15.2079 25.4582 15.8507V16.782C23.0972 16.301 20.9919 13.205 20.9694 13.1716C20.8555 13.0014 20.6831 12.9024 20.5006 12.9022C20.5005 12.9022 20.5003 12.9022 20.5002 12.9022C20.318 12.9022 20.1455 13.0013 20.0315 13.1711C20.0087 13.205 17.9039 16.3005 15.543 16.7819V15.8507C15.543 15.2079 15.1054 14.6849 14.5675 14.6849H14.3771C14.079 14.6849 13.79 14.7494 13.5202 14.8719V13.6451C13.5202 9.045 16.6516 5.30262 20.5006 5.30262ZM25.8133 27.8149C25.7831 27.8592 25.7532 27.9041 25.7239 27.9495L23.9124 27.5754L23.9128 26.2812H24.7961C25.3571 26.2812 25.8133 26.8266 25.8133 27.4969V27.8149ZM23.2846 24.4298C22.5375 25.3089 21.5489 25.793 20.5006 25.793C19.4524 25.793 18.4637 25.3089 17.7167 24.4298L16.8224 23.3775C16.0094 22.4208 15.5431 21.09 15.5431 19.7263V18.2336C17.7384 17.8921 19.6484 15.7876 20.5004 14.7044C21.3525 15.7877 23.2627 17.8925 25.4583 18.2336V19.7244C25.4583 19.7251 25.4582 19.7257 25.4582 19.7262C25.4582 21.0899 24.9919 22.4208 24.1789 23.3774L23.2846 24.4298ZM15.2762 27.9497C15.2468 27.9042 15.2169 27.8593 15.1867 27.8149V27.4969C15.1867 26.8266 15.643 26.2812 16.204 26.2812H17.0887V27.5754L15.2762 27.9497ZM13.1694 17.6055C13.1604 17.2114 13.2817 16.8393 13.5111 16.5575C13.7324 16.2857 14.0262 16.1316 14.3419 16.1209V19.0059C13.7057 18.9622 13.1865 18.3508 13.1694 17.6055ZM3.88283 20.5202C3.88283 17.7029 5.80062 15.4109 8.15796 15.4109C10.5153 15.4109 12.4331 17.7029 12.4331 20.5202C12.4331 23.335 10.5186 25.6253 8.16413 25.6293H8.15179C5.79726 25.6253 3.88283 23.335 3.88283 20.5202ZM13.6343 20.5202C13.6343 20.4425 13.6316 20.3654 13.6294 20.2884C13.8652 20.3841 14.1163 20.4381 14.3765 20.443C14.5156 21.9314 15.0821 23.3442 15.9798 24.4005L16.3582 24.8458H16.204C15.2325 24.8458 14.4053 25.5965 14.1058 26.6377C13.3614 26.0404 12.4873 25.6891 11.567 25.6369C12.8255 24.4366 13.6343 22.5897 13.6343 20.5202ZM20.5006 32.072L17.1495 29.0198L17.7915 28.8872C18.0795 28.8277 18.2898 28.5292 18.2898 28.1799V26.6373C18.9727 27.024 19.724 27.2285 20.5006 27.2285C21.2773 27.2285 22.0286 27.0239 22.7114 26.6373L22.711 28.1797C22.7109 28.529 22.9212 28.8277 23.2093 28.8872L23.8518 29.0199L20.5006 32.072ZM26.8942 26.6376C26.5948 25.5963 25.7677 24.8456 24.7961 24.8456H24.6432L25.0217 24.4003C25.9194 23.344 26.4858 21.9312 26.6249 20.4428C26.8846 20.4379 27.1354 20.3841 27.3707 20.2888C27.3685 20.3657 27.3658 20.4425 27.3658 20.52C27.3658 22.5896 28.1746 24.4365 29.4333 25.6367C28.5128 25.6891 27.6386 26.0403 26.8942 26.6376Z" fill="#00ADB5"/>
</g>
<defs>
<clipPath id="clip0_338_46">
<rect width="41" height="49" fill="white"/>
</clipPath>
</defs>
</svg>
