<svg width="82" height="60" viewBox="0 0 82 60" fill="none" xmlns="http://www.w3.org/2000/svg">
<path d="M45.7315 40.7348C44.8682 39.4826 44.3623 38.1191 44.2873 36.7219C44.1722 34.5755 43.3982 32.2695 42.7111 30.4922C41.0932 26.3064 42.2648 19.1578 42.2648 19.1578C42.2648 19.1578 38.5657 26.199 38.9072 31.3315C39.0374 33.2881 38.7276 35.2894 38.3746 36.83C38.0794 38.1181 37.3896 39.3341 36.4489 40.4501C35.921 41.0761 35.6361 42.2264 35.6882 43.0208C35.8179 44.9973 38.0794 46.8993 40.8248 46.9565C43.8234 47.019 46.2814 44.9817 46.2814 42.8354C46.2814 42.2266 46.0835 41.2453 45.7315 40.7348Z" stroke="#FBDB86" stroke-width="2" stroke-miterlimit="10" stroke-linecap="round" stroke-linejoin="round"/>
<path d="M53.6524 8.17249V42.2826C53.6524 43.4291 53.212 44.5543 52.3778 45.5397L40.9816 59L29.5856 45.5395C28.7514 44.5542 28.311 43.429 28.311 42.2824V8.17249" stroke="#FBDB86" stroke-width="2" stroke-miterlimit="10" stroke-linecap="round" stroke-linejoin="round"/>
<path d="M1 33.1499H21.6162C25.3197 33.1499 28.322 35.2598 28.322 37.8625" stroke="#FBDB86" stroke-width="2" stroke-miterlimit="10" stroke-linecap="round" stroke-linejoin="round"/>
<path d="M81.0001 33.1499H60.384C56.6805 33.1499 53.6782 35.2598 53.6782 37.8625" stroke="#FBDB86" stroke-width="2" stroke-miterlimit="10" stroke-linecap="round" stroke-linejoin="round"/>
<path d="M4.48682 37.5333H21.6163C25.3198 37.5333 28.322 39.6433 28.322 42.246" stroke="#FBDB86" stroke-width="2" stroke-miterlimit="10" stroke-linecap="round" stroke-linejoin="round"/>
<path d="M75.7701 37.5333H60.384C56.6805 37.5333 53.6782 39.6433 53.6782 42.246" stroke="#FBDB86" stroke-width="2" stroke-miterlimit="10" stroke-linecap="round" stroke-linejoin="round"/>
<path d="M41 11.5431V1" stroke="#FBDB86" stroke-width="2" stroke-miterlimit="10" stroke-linecap="round" stroke-linejoin="round"/>
<path d="M44.7395 9.80103L41.0001 12.429L37.2607 9.80103" stroke="#FBDB86" stroke-width="2" stroke-miterlimit="10" stroke-linecap="round" stroke-linejoin="round"/>
</svg>
