<svg width="44" height="60" viewBox="0 0 44 60" fill="none" xmlns="http://www.w3.org/2000/svg">
<path d="M18.9404 59C18.3709 54.1435 17.2969 52.024 17.2969 52.024" stroke="#FBDB86" stroke-width="2" stroke-miterlimit="10" stroke-linecap="round" stroke-linejoin="round"/>
<path d="M6.7347 17.8071C4.97144 20.2313 3.01111 24.7842 4.08896 28.8699C4.08896 28.8699 5.26431 31.9074 5.11733 33.2741C4.97035 34.6409 0.856867 38.7413 1.00385 39.3489C1.15083 39.9564 4.52978 40.26 4.52978 40.8675C4.52978 41.4751 3.22851 42.8546 3.22851 42.8546L5.1065 44.0333L3.73156 46.1481L5.77723 47.0841L5.73582 49.863C5.73582 50.4705 5.70513 52.7663 6.58664 53.07C7.46803 53.3739 18.3394 51.7033 21.4245 50.9438" stroke="#FBDB86" stroke-width="2" stroke-miterlimit="10" stroke-linecap="round" stroke-linejoin="round"/>
<path d="M37.2053 59L35.8226 55.1499C34.7659 52.2546 35.2781 49.0024 37.1551 46.5919C40.249 42.6186 44.0136 35.5066 42.1888 26.7035C41.3833 22.8183 39.4414 19.275 36.943 16.504" stroke="#FBDB86" stroke-width="2" stroke-miterlimit="10" stroke-linecap="round" stroke-linejoin="round"/>
<path d="M5.24512 44.0332L8.88709 44.1856" stroke="#FBDB86" stroke-width="2" stroke-miterlimit="10" stroke-linecap="round" stroke-linejoin="round"/>
<path d="M24.1345 31.7984C24.5803 31.35 25.1977 31.0724 25.88 31.0724C27.2393 31.0724 28.3412 32.1743 28.3412 33.5336V35.4187C28.3412 36.778 27.2393 37.8799 25.88 37.8799C25.1711 37.8799 24.5321 37.5801 24.083 37.1005" stroke="#FBDB86" stroke-width="2" stroke-miterlimit="10" stroke-linecap="round" stroke-linejoin="round"/>
<path d="M26.8065 17.9983C26.8065 17.9983 29.2055 21.5624 26.1896 23.8929C22.9264 26.4144 23.7906 29.0334 23.7906 29.0334" stroke="#FBDB86" stroke-width="2" stroke-miterlimit="10" stroke-linecap="round" stroke-linejoin="round"/>
<path d="M26.3267 40.137L36.128 47.608" stroke="#FBDB86" stroke-width="2" stroke-miterlimit="10" stroke-linecap="round" stroke-linejoin="round"/>
<path d="M22.1824 7.14507C22.1824 7.14507 25.0931 6.27776 28.1774 7.58011C31.2618 8.88246 33.1124 6.55198 33.1124 6.55198C34.1405 9.77336 30.028 17.7242 22.3515 14.7083C14.675 11.6924 10.4254 16.6959 10.4254 16.6959C10.4254 16.6959 10.9219 12.4379 15.4289 11.1441C21.6456 9.3595 18.3762 1 18.3762 1C18.3762 1 16.5255 6.89457 8.91754 9.56763C1.54308 12.1586 5.55906 19.5061 5.55906 19.5061C5.55906 19.5061 1.71305 17.1938 2.58661 12.6513C3.46018 8.10868 9.74994 7.99228 10.1575 3.04206" stroke="#FBDB86" stroke-width="2" stroke-miterlimit="10" stroke-linecap="round" stroke-linejoin="round"/>
<path d="M29.4131 17.1569C29.4131 17.1569 37.3091 18.886 40.3776 12.9263" stroke="#FBDB86" stroke-width="2" stroke-miterlimit="10" stroke-linecap="round" stroke-linejoin="round"/>
<path d="M32.9287 14.275C32.9287 14.275 37.1937 14.5055 38.0006 10.7015" stroke="#FBDB86" stroke-width="2" stroke-miterlimit="10" stroke-linecap="round" stroke-linejoin="round"/>
<path d="M20.8722 24.8975C21.2825 24.8975 21.6151 24.565 21.6151 24.1547C21.6151 23.7444 21.2825 23.4119 20.8722 23.4119C20.462 23.4119 20.1294 23.7444 20.1294 24.1547C20.1294 24.565 20.462 24.8975 20.8722 24.8975Z" fill="#FBDB86"/>
<path d="M20.4015 28.0233C20.8118 28.0233 21.1444 27.6907 21.1444 27.2804C21.1444 26.8702 20.8118 26.5376 20.4015 26.5376C19.9913 26.5376 19.6587 26.8702 19.6587 27.2804C19.6587 27.6907 19.9913 28.0233 20.4015 28.0233Z" fill="#FBDB86"/>
<path d="M18.6427 25.7857C19.053 25.7857 19.3856 25.4531 19.3856 25.0429C19.3856 24.6326 19.053 24.3 18.6427 24.3C18.2325 24.3 17.8999 24.6326 17.8999 25.0429C17.8999 25.4531 18.2325 25.7857 18.6427 25.7857Z" fill="#FBDB86"/>
<path d="M16.7892 23.3884C17.1995 23.3884 17.5321 23.0558 17.5321 22.6455C17.5321 22.2353 17.1995 21.9027 16.7892 21.9027C16.379 21.9027 16.0464 22.2353 16.0464 22.6455C16.0464 23.0558 16.379 23.3884 16.7892 23.3884Z" fill="#FBDB86"/>
<path d="M14.0085 21.8861C14.4187 21.8861 14.7513 21.5535 14.7513 21.1432C14.7513 20.733 14.4187 20.4004 14.0085 20.4004C13.5982 20.4004 13.2656 20.733 13.2656 21.1432C13.2656 21.5535 13.5982 21.8861 14.0085 21.8861Z" fill="#FBDB86"/>
<path d="M10.9108 21.3137C11.3211 21.3137 11.6536 20.9811 11.6536 20.5708C11.6536 20.1606 11.3211 19.828 10.9108 19.828C10.5006 19.828 10.168 20.1606 10.168 20.5708C10.168 20.9811 10.5006 21.3137 10.9108 21.3137Z" fill="#FBDB86"/>
<path d="M7.98356 21.1197C8.39382 21.1197 8.7264 20.7871 8.7264 20.3769C8.7264 19.9666 8.39382 19.634 7.98356 19.634C7.5733 19.634 7.24072 19.9666 7.24072 20.3769C7.24072 20.7871 7.5733 21.1197 7.98356 21.1197Z" fill="#FBDB86"/>
<path d="M21.7736 30.6413C22.1839 30.6413 22.5164 30.3087 22.5164 29.8985C22.5164 29.4882 22.1839 29.1556 21.7736 29.1556C21.3633 29.1556 21.0308 29.4882 21.0308 29.8985C21.0308 30.3087 21.3633 30.6413 21.7736 30.6413Z" fill="#FBDB86"/>
<path d="M23.4279 22.7509C23.8382 22.7509 24.1707 22.4184 24.1707 22.0081C24.1707 21.5978 23.8382 21.2653 23.4279 21.2653C23.0176 21.2653 22.6851 21.5978 22.6851 22.0081C22.6851 22.4184 23.0176 22.7509 23.4279 22.7509Z" fill="#FBDB86"/>
<path d="M23.9758 19.2418C24.386 19.2418 24.7186 18.9092 24.7186 18.4989C24.7186 18.0887 24.386 17.7561 23.9758 17.7561C23.5655 17.7561 23.2329 18.0887 23.2329 18.4989C23.2329 18.9092 23.5655 19.2418 23.9758 19.2418Z" fill="#FBDB86"/>
<path d="M21.2795 19.9498C21.6897 19.9498 22.0223 19.6172 22.0223 19.207C22.0223 18.7967 21.6897 18.4641 21.2795 18.4641C20.8692 18.4641 20.5366 18.7967 20.5366 19.207C20.5366 19.6172 20.8692 19.9498 21.2795 19.9498Z" fill="#FBDB86"/>
<path d="M19.0661 21.6899C19.4763 21.6899 19.8089 21.3573 19.8089 20.9471C19.8089 20.5368 19.4763 20.2042 19.0661 20.2042C18.6558 20.2042 18.3232 20.5368 18.3232 20.9471C18.3232 21.3573 18.6558 21.6899 19.0661 21.6899Z" fill="#FBDB86"/>
<path d="M16.444 19.4604C16.8543 19.4604 17.1869 19.1278 17.1869 18.7176C17.1869 18.3073 16.8543 17.9747 16.444 17.9747C16.0338 17.9747 15.7012 18.3073 15.7012 18.7176C15.7012 19.1278 16.0338 19.4604 16.444 19.4604Z" fill="#FBDB86"/>
<path d="M13.0402 18.6591C13.4505 18.6591 13.783 18.3266 13.783 17.9163C13.783 17.506 13.4505 17.1735 13.0402 17.1735C12.6299 17.1735 12.2974 17.506 12.2974 17.9163C12.2974 18.3266 12.6299 18.6591 13.0402 18.6591Z" fill="#FBDB86"/>
<path d="M18.8049 17.285C19.2151 17.285 19.5477 16.9524 19.5477 16.5422C19.5477 16.1319 19.2151 15.7993 18.8049 15.7993C18.3946 15.7993 18.062 16.1319 18.062 16.5422C18.062 16.9524 18.3946 17.285 18.8049 17.285Z" fill="#FBDB86"/>
</svg>
